<?xml version="1.0" standalone="no"?>
<!DOCTYPE svg PUBLIC "-//W3C//DTD SVG 20010904//EN"
 "http://www.w3.org/TR/2001/REC-SVG-20010904/DTD/svg10.dtd">
<svg version="1.0" xmlns="http://www.w3.org/2000/svg"
 width="260.000000pt" height="260.000000pt" viewBox="0 0 260.000000 260.000000"
 preserveAspectRatio="xMidYMid meet">
<metadata>
Created by potrace 1.14, written by Peter Selinger 2001-2017
</metadata>
<g transform="translate(0.000000,260.000000) scale(0.100000,-0.100000)"
fill="#000000" stroke="none">
<path d="M1958 2586 c-18 -13 -26 -32 -10 -22 5 3 9 -1 9 -9 0 -8 -4 -12 -9
-9 -5 3 -17 0 -26 -8 -16 -12 -16 -11 -2 6 14 18 14 19 -5 8 -15 -7 -26 -7
-40 1 -17 9 -18 8 -8 -4 10 -12 8 -15 -7 -15 -10 0 -17 3 -14 7 2 4 -3 10 -12
13 -8 3 -12 2 -9 -3 3 -5 1 -12 -5 -16 -5 -3 -10 -1 -10 5 0 6 -5 8 -10 5 -6
-4 -8 -11 -5 -16 4 -5 1 -9 -5 -9 -6 0 -8 -5 -4 -12 5 -8 2 -9 -11 -4 -15 5
-16 4 -6 -8 11 -13 10 -15 -6 -11 -10 2 -27 7 -37 11 -13 5 -17 4 -12 -4 3 -6
1 -14 -5 -18 -7 -4 -9 -3 -5 4 3 6 2 13 -4 17 -5 3 -10 -1 -10 -10 0 -9 -5
-13 -10 -10 -6 4 -10 3 -9 -2 4 -21 -2 -43 -12 -43 -5 0 -8 4 -5 8 3 5 -1 9
-9 9 -8 0 -12 -4 -9 -9 8 -12 -10 -10 -24 4 -9 9 -13 7 -18 -5 -3 -9 -10 -14
-15 -11 -5 3 -6 10 -3 16 4 7 2 8 -4 4 -9 -5 -9 -13 -2 -26 13 -24 13 -33 0
-25 -5 3 -10 1 -10 -4 0 -6 -5 -11 -11 -11 -5 0 -8 4 -5 8 2 4 -4 8 -14 8 -13
0 -16 -4 -10 -11 7 -8 5 -12 -5 -12 -8 0 -15 4 -15 9 0 5 -10 4 -21 -3 -12 -6
-19 -7 -15 -1 3 5 -6 12 -19 15 -14 2 -28 0 -32 -6 -3 -6 -1 -7 5 -3 7 4 12 3
12 -3 0 -5 -9 -9 -20 -8 -14 1 -19 6 -15 16 4 10 -1 9 -16 -5 -12 -10 -19 -14
-16 -8 4 7 0 14 -8 17 -9 4 -12 1 -8 -9 3 -7 1 -14 -5 -14 -5 0 -13 7 -16 16
-6 15 -8 15 -24 2 -18 -16 -55 -21 -46 -6 3 4 -4 8 -16 8 -12 0 -18 -4 -15
-10 3 -5 1 -10 -4 -10 -6 0 -11 6 -11 13 0 8 -4 7 -10 -3 -8 -12 -10 -12 -10
5 -1 18 -1 19 -11 3 -5 -10 -15 -18 -22 -18 -7 0 -6 4 3 10 10 6 4 9 -23 7
-27 -1 -36 -6 -32 -16 5 -11 3 -12 -10 -1 -9 7 -18 10 -22 6 -3 -3 -1 -6 5 -6
7 0 12 -5 12 -11 0 -6 -7 -8 -16 -5 -15 6 -15 4 -3 -11 9 -11 10 -14 2 -9 -9
5 -13 1 -14 -11 0 -14 -2 -15 -7 -3 -8 17 -42 23 -42 8 0 -5 -6 -6 -12 -1 -21
13 -56 10 -51 -4 3 -7 0 -13 -6 -13 -6 0 -11 5 -11 11 0 5 -5 7 -11 3 -7 -4
-7 -9 -1 -13 5 -3 6 -15 1 -26 -5 -13 -8 -15 -9 -5 0 12 -3 11 -11 -3 -10 -18
-11 -18 -32 0 -11 10 -17 13 -14 7 4 -7 0 -14 -8 -18 -10 -3 -15 1 -15 12 0
15 -2 15 -10 2 -9 -13 -10 -13 -10 0 -1 12 -3 11 -11 -2 -5 -10 -19 -18 -29
-18 -22 0 -28 -26 -8 -32 7 -3 5 -7 -6 -11 -9 -4 -15 -3 -12 1 2 4 -14 8 -36
8 -26 1 -35 -2 -27 -7 11 -7 9 -9 -6 -10 -11 -1 -24 -1 -29 0 -5 1 -4 -4 3
-13 9 -11 9 -16 0 -22 -8 -4 -9 -3 -5 4 4 7 2 12 -3 12 -6 0 -11 -7 -11 -16 0
-8 -4 -13 -9 -9 -12 7 -33 -29 -23 -41 4 -5 -2 -2 -12 6 -11 8 -17 10 -14 5 4
-6 -5 -28 -19 -50 -14 -22 -23 -33 -20 -24 3 9 -1 16 -8 16 -8 0 -11 -7 -7
-15 3 -10 1 -13 -6 -8 -7 4 -12 2 -12 -4 0 -6 -4 -9 -9 -5 -5 3 -12 1 -15 -4
-4 -5 -1 -13 5 -17 8 -5 9 -3 4 6 -5 9 -4 11 4 6 16 -10 4 -26 -19 -26 -10 0
-22 -5 -25 -10 -4 -6 -12 -8 -18 -4 -7 3 -3 -2 7 -10 17 -14 18 -16 3 -16 -9
0 -17 -5 -17 -11 0 -5 -6 -7 -12 -3 -8 5 -8 2 1 -10 12 -15 12 -17 0 -14 -8 2
-18 8 -22 13 -5 6 -7 0 -4 -12 5 -25 -11 -43 -41 -46 -14 -1 -18 -7 -15 -22 4
-16 3 -17 -6 -5 -9 12 -11 11 -11 -9 0 -20 -2 -21 -15 -11 -8 7 -16 10 -16 6
-1 -3 -3 -10 -4 -16 -1 -5 -3 -15 -4 -21 0 -5 -5 -7 -11 -4 -5 3 -10 4 -10 0
0 -3 10 -10 23 -15 17 -7 18 -9 4 -9 -14 -1 -16 -5 -7 -20 9 -17 7 -19 -10
-16 -13 3 -18 0 -14 -7 5 -7 2 -9 -8 -5 -10 3 -15 0 -14 -11 0 -9 -5 -16 -12
-14 -8 1 -11 -2 -7 -8 3 -6 12 -7 18 -4 8 5 8 3 0 -7 -15 -15 -17 -33 -5 -25
11 6 9 -34 -1 -51 -5 -8 -3 -13 5 -14 7 0 2 -5 -12 -11 -14 -6 -28 -11 -32
-10 -4 1 -5 -7 -3 -18 2 -12 0 -18 -5 -15 -5 3 -11 1 -15 -5 -3 -5 -2 -10 3
-10 6 0 13 -7 16 -16 5 -13 4 -14 -7 -6 -10 9 -14 8 -14 -3 0 -8 4 -15 9 -15
4 0 8 -7 8 -15 0 -8 -5 -15 -11 -15 -5 0 -7 -5 -4 -10 4 -6 11 -8 16 -5 5 3 6
-1 3 -9 -3 -9 -10 -14 -14 -11 -11 7 -7 -15 9 -43 7 -13 10 -26 7 -30 -3 -3
-6 0 -6 7 0 7 -4 10 -9 7 -10 -7 -9 -31 2 -42 10 -10 9 -26 -1 -20 -5 3 -9 -1
-9 -9 0 -8 3 -12 7 -10 4 3 7 -5 6 -17 -1 -19 -13 -26 -52 -30 -10 -1 -11 -35
-3 -68 2 -8 -2 -15 -8 -16 -7 -1 -16 -3 -20 -4 -5 -1 -12 -2 -16 -1 -5 1 -6
-3 -2 -9 5 -8 12 -7 23 2 15 12 16 11 3 -5 -8 -10 -20 -16 -27 -13 -7 3 -15
-1 -18 -9 -3 -10 0 -12 12 -8 14 5 15 3 5 -8 -15 -15 -17 -33 -4 -25 9 6 7
-29 -5 -58 -6 -15 -4 -17 6 -11 9 6 11 4 6 -4 -5 -7 -15 -10 -23 -7 -8 3 -11
2 -8 -3 3 -5 -4 -12 -15 -16 -19 -6 -19 -16 -19 -276 0 -274 0 -274 36 -270 7
1 17 -8 24 -20 9 -18 9 -21 -3 -16 -10 3 -14 -1 -12 -16 1 -12 3 -23 4 -24 7
-8 5 -30 -2 -46 -5 -9 -5 -17 -1 -16 19 3 33 -2 33 -12 0 -5 -5 -7 -12 -3 -7
4 -8 3 -4 -5 6 -9 11 -9 22 0 12 10 13 9 8 -6 -6 -15 -3 -17 17 -12 21 5 22 4
7 -7 -11 -8 -14 -17 -8 -26 5 -8 5 -21 -1 -31 -7 -15 -3 -20 26 -30 23 -9 31
-16 22 -21 -8 -5 -7 -8 6 -8 9 0 17 -5 17 -11 0 -5 4 -8 9 -4 5 3 13 0 17 -6
5 -8 3 -9 -7 -4 -8 4 -3 -3 11 -16 13 -13 29 -25 35 -25 37 -5 74 -18 69 -25
-3 -5 0 -9 5 -9 6 0 11 -7 11 -15 0 -14 29 -16 221 -15 165 1 219 4 210 13 -6
6 -11 18 -11 26 0 14 1 14 10 1 8 -13 10 -13 10 2 0 12 5 15 17 11 11 -4 14
-3 9 5 -4 7 -2 12 3 12 6 0 11 -5 11 -11 0 -6 6 -9 14 -6 7 3 19 0 26 -6 10
-9 9 -6 0 13 -12 23 -12 24 4 11 9 -8 16 -10 15 -5 -4 22 2 44 12 44 5 0 7 -4
4 -10 -3 -5 0 -7 9 -4 8 3 12 13 10 22 -4 14 -3 13 6 -1 11 -18 12 -18 27 0 8
10 12 12 8 5 -7 -14 29 -12 42 3 5 4 3 5 -3 2 -7 -4 -15 0 -18 9 -9 23 -7 31
4 14 8 -13 11 -13 22 -1 11 12 10 13 -2 6 -8 -5 -12 -4 -7 0 13 15 49 17 41 3
-6 -10 -5 -10 7 -1 11 9 19 9 26 2 8 -8 13 -8 17 0 4 6 12 11 17 11 6 0 8 -4
5 -9 -3 -4 9 -7 27 -6 48 4 49 4 42 15 -3 6 1 7 9 4 9 -3 13 -11 9 -18 -3 -6
-1 -6 8 1 17 17 32 17 23 1 -5 -8 0 -7 11 2 10 8 16 10 12 3 -4 -6 -2 -15 4
-19 8 -4 9 -3 5 4 -4 7 -2 12 4 12 6 0 9 4 6 9 -7 12 42 5 58 -8 9 -7 16 -7
24 1 9 9 12 9 12 -1 0 -11 3 -11 15 -1 12 10 15 10 15 -1 0 -8 5 -6 13 6 11
14 16 15 22 5 6 -9 4 -11 -5 -5 -9 6 -11 4 -6 -4 5 -7 11 -10 14 -7 3 3 12 0
21 -7 14 -10 14 -10 3 5 -12 15 -9 16 25 15 21 -1 44 -6 52 -11 11 -7 13 -5 8
7 -4 11 -2 14 9 10 7 -3 14 -10 14 -16 0 -5 8 -3 18 6 10 10 22 14 26 10 3 -4
17 -8 29 -10 12 -2 17 0 12 4 -16 12 -12 33 9 49 17 12 22 12 36 -1 14 -13 18
-13 33 2 16 16 17 16 17 -2 1 -18 1 -19 11 -2 5 9 15 17 22 17 7 0 6 -4 -3
-10 -13 -8 16 -9 84 -1 5 1 3 8 -4 16 -10 12 -9 15 4 15 9 0 20 10 25 22 6 16
9 18 13 6 6 -15 56 -17 80 -2 10 6 11 4 3 -7 -5 -8 -2 -6 9 6 10 11 20 19 22
18 13 -9 16 -1 4 8 -12 9 -10 10 8 6 20 -5 22 -3 10 11 -7 9 -8 13 -2 9 7 -4
15 0 18 9 4 11 13 13 28 9 22 -7 22 -6 4 7 -18 14 -18 15 5 23 13 4 28 6 33 6
5 -1 13 4 17 11 5 7 9 8 9 3 0 -6 9 -11 21 -12 15 -1 18 1 10 10 -7 9 -7 17 1
27 8 13 9 13 5 -1 -3 -9 1 -16 8 -16 7 0 10 8 8 18 -3 9 1 20 8 25 9 5 11 2 6
-9 -5 -14 -3 -15 13 -5 14 9 16 14 7 22 -7 6 -10 10 -8 9 9 -5 41 19 36 27 -4
6 1 7 11 3 12 -4 15 -3 10 5 -4 7 -2 12 3 12 6 0 10 6 9 13 -2 6 7 12 19 12
12 0 26 5 30 9 4 5 2 6 -4 2 -7 -4 -13 -2 -13 3 0 6 7 11 16 11 8 0 12 5 9 10
-3 6 -1 10 4 10 6 0 11 4 11 10 0 5 -8 7 -17 4 -15 -5 -15 -4 -3 4 10 8 18 8
27 0 10 -8 13 -5 13 11 0 12 4 20 9 16 5 -3 13 0 17 6 4 7 3 9 -3 6 -6 -4 -14
0 -17 9 -8 21 -8 24 5 24 5 0 7 -6 3 -12 -4 -7 -3 -10 1 -5 5 4 10 17 12 29 3
18 1 19 -14 7 -16 -12 -16 -11 0 8 11 12 27 20 38 18 10 -2 22 1 25 7 4 7 2 8
-4 4 -16 -10 -15 7 1 23 10 11 10 13 0 7 -7 -4 -13 -3 -13 1 0 5 6 15 13 22
10 11 9 12 -2 6 -10 -6 -12 -4 -7 4 5 7 14 10 21 7 9 -3 11 2 8 17 -3 13 -1
18 4 12 12 -15 36 -18 27 -3 -13 21 -12 49 2 44 8 -3 11 0 7 9 -3 8 -9 13 -13
10 -5 -3 -12 0 -16 6 -4 8 -3 9 4 5 8 -5 12 3 12 24 0 17 4 29 8 26 5 -3 9 1
9 9 0 11 -3 12 -14 3 -10 -8 -17 -8 -26 2 -9 9 -9 11 0 6 6 -3 15 -1 19 5 4 8
3 9 -4 5 -7 -4 -12 -2 -12 5 0 10 -3 10 -12 1 -7 -7 -17 -8 -29 -2 -12 7 -20
6 -24 -1 -4 -6 -18 -8 -32 -4 -18 4 -23 2 -17 -6 4 -8 3 -9 -5 -5 -6 4 -18 3
-25 -3 -10 -8 -17 -7 -26 4 -9 10 -9 15 -1 15 6 0 11 -5 11 -11 0 -5 5 -7 10
-4 6 3 10 10 10 14 0 11 -56 8 -67 -3 -5 -5 -2 -6 6 -1 9 5 12 4 7 -3 -5 -9
-15 -7 -34 5 -26 17 -27 17 -12 -1 14 -18 14 -19 -6 -8 -16 8 -24 8 -33 -1
-10 -9 -11 -9 -6 4 4 11 -1 15 -19 15 -14 0 -22 -4 -20 -8 3 -5 10 -6 15 -3 5
4 9 1 9 -4 0 -13 -10 -14 -30 -1 -9 5 -19 5 -27 -2 -10 -8 -12 -7 -8 4 4 10
-2 14 -19 14 -14 0 -22 -4 -20 -8 3 -5 10 -6 15 -3 5 4 9 1 9 -4 0 -13 -10
-14 -30 -1 -9 5 -19 5 -27 -2 -10 -8 -12 -7 -8 4 4 10 -2 14 -19 14 -14 0 -22
-4 -20 -8 3 -5 10 -6 15 -3 5 4 9 1 9 -4 0 -13 -10 -14 -30 -1 -9 5 -19 5 -27
-2 -10 -8 -12 -7 -8 4 4 9 0 15 -9 15 -8 0 -12 -6 -9 -14 3 -7 0 -13 -6 -13
-6 0 -11 6 -11 13 0 8 -4 7 -10 -3 -5 -8 -10 -10 -10 -4 0 16 -30 26 -44 15
-6 -5 -22 -11 -35 -13 -17 -2 -25 -10 -26 -25 -1 -13 -5 -26 -10 -30 -4 -5 -5
0 -2 10 5 13 3 16 -6 10 -6 -4 -18 -8 -25 -9 -8 -2 -17 -6 -20 -10 -4 -4 1 -4
12 0 14 5 17 3 12 -10 -3 -8 -6 -20 -6 -25 0 -4 -6 -6 -14 -3 -8 3 -17 0 -21
-5 -3 -6 -11 -9 -16 -6 -5 4 -6 -2 -2 -11 5 -14 3 -16 -13 -11 -17 6 -17 6 -2
-6 15 -12 15 -14 0 -24 -10 -6 -26 -7 -39 -2 -27 10 -71 0 -51 -12 9 -6 6 -9
-12 -10 -14 0 -19 -3 -12 -6 6 -2 12 -9 12 -14 0 -4 -7 -5 -17 -2 -10 4 -14 2
-9 -5 3 -6 1 -14 -5 -18 -8 -5 -9 -3 -4 6 6 9 2 10 -15 5 -17 -6 -21 -4 -14 6
6 10 3 10 -11 -1 -10 -8 -16 -10 -12 -3 4 6 2 15 -4 19 -7 4 -9 3 -6 -3 4 -6
-3 -19 -16 -29 -16 -14 -18 -14 -9 -2 9 11 10 18 2 23 -5 3 -10 1 -10 -4 0 -6
-5 -11 -11 -11 -5 0 -7 5 -4 10 3 6 1 10 -4 10 -6 0 -11 -5 -11 -11 0 -8 -6
-7 -17 2 -11 10 -14 10 -9 2 4 -7 3 -13 -3 -13 -5 0 -12 6 -14 13 -4 9 -6 9
-6 0 -1 -7 -6 -13 -12 -13 -5 0 -7 6 -3 13 5 7 0 6 -11 -3 -10 -8 -16 -10 -12
-3 4 6 2 15 -4 19 -8 4 -9 3 -5 -4 4 -7 2 -12 -4 -12 -6 0 -8 -4 -5 -10 3 -6
-1 -7 -9 -4 -9 3 -13 11 -9 18 4 6 -2 4 -12 -4 -11 -9 -16 -10 -11 -2 5 8 0
12 -14 12 -12 0 -18 5 -15 10 4 6 11 7 17 4 7 -4 7 0 0 13 -6 10 -22 19 -37
21 -18 1 -24 -2 -19 -11 4 -6 -1 -4 -12 5 -16 14 -23 15 -34 5 -10 -10 -12 -9
-7 6 4 9 2 17 -3 17 -6 0 -10 8 -10 18 0 13 2 14 9 3 6 -9 8 -4 8 17 -1 17 -5
28 -9 26 -5 -3 -8 -1 -8 5 0 5 -9 8 -20 6 -15 -3 -20 2 -20 16 0 11 -4 18 -8
15 -4 -2 -8 6 -8 20 0 14 5 23 11 20 7 -2 12 2 12 10 0 8 -7 14 -16 14 -14 0
-14 2 -1 10 8 5 10 10 4 10 -7 0 -11 11 -10 24 0 13 4 22 9 19 4 -2 7 1 7 8 0
8 5 7 17 -2 11 -10 14 -10 9 -1 -9 16 6 16 23 -1 9 -7 11 -7 8 -1 -8 13 11 23
31 17 6 -3 9 -10 5 -16 -4 -7 1 -6 10 2 9 7 17 9 17 4 0 -5 7 -10 15 -10 11 0
12 4 4 14 -9 10 -2 10 35 -1 32 -10 48 -11 53 -3 4 6 1 7 -7 2 -9 -6 -11 -4
-5 4 5 9 10 10 18 2 7 -7 17 -7 31 1 19 10 20 10 7 -6 -12 -15 -12 -17 0 -14
8 2 20 10 27 18 8 8 11 10 8 3 -4 -6 -2 -14 4 -18 5 -3 10 1 10 9 0 9 4 16 10
16 5 0 6 -8 3 -17 -6 -16 -5 -16 10 -4 9 7 17 9 17 4 0 -5 7 -10 15 -10 11 0
12 4 4 13 -8 10 -5 11 13 7 13 -3 29 -11 37 -17 11 -8 13 -8 7 2 -4 6 -2 12 3
12 6 0 11 -5 11 -12 0 -6 7 -3 16 8 8 10 13 14 10 7 -4 -6 -2 -14 3 -17 5 -3
11 1 15 9 3 8 11 15 18 15 10 0 10 -2 -1 -9 -11 -7 -11 -9 0 -13 8 -3 20 1 27
8 15 15 45 7 35 -10 -4 -6 1 -5 10 3 9 7 17 9 17 4 0 -5 7 -10 15 -10 11 0 12
4 4 14 -9 10 -2 10 35 -1 32 -10 48 -11 53 -3 4 6 1 7 -7 2 -9 -6 -11 -4 -5 4
5 9 10 10 18 2 7 -7 17 -7 31 1 19 10 20 10 7 -6 -12 -15 -12 -17 0 -14 8 2
20 10 27 18 8 8 11 10 8 3 -4 -6 -2 -14 4 -18 5 -3 10 1 10 9 0 9 4 16 10 16
5 0 7 -6 4 -13 -3 -8 2 -14 10 -14 8 0 13 4 10 9 -3 4 0 8 5 8 6 0 11 -5 11
-12 0 -6 7 -3 15 8 8 10 15 15 14 9 -3 -24 2 -27 17 -9 8 10 13 14 10 7 -4 -6
-2 -14 4 -18 5 -3 10 -1 10 4 0 6 5 11 11 11 5 0 7 -6 3 -12 -4 -7 3 -4 15 6
15 14 20 15 16 5 -4 -10 1 -15 14 -15 15 0 17 3 9 13 -8 10 -7 12 6 7 9 -3 16
-11 16 -17 0 -6 7 -2 15 9 8 10 15 15 14 9 -3 -24 2 -27 17 -9 8 10 13 14 10
7 -4 -6 -2 -14 4 -18 5 -3 10 -1 10 4 0 6 5 11 11 11 5 0 7 -6 3 -12 -4 -7 3
-4 15 6 14 13 20 15 16 5 -4 -10 3 -14 25 -13 17 0 33 4 38 9 4 5 1 5 -7 0
-10 -6 -12 -4 -6 4 5 9 10 10 18 2 7 -7 17 -7 31 1 19 10 20 10 7 -6 -12 -15
-12 -17 0 -14 8 2 20 10 27 18 8 8 11 10 8 3 -4 -6 -2 -14 4 -18 5 -3 10 1 10
9 0 9 4 16 10 16 5 0 6 -8 3 -18 -6 -15 -5 -15 10 -3 9 7 17 9 17 4 0 -5 7
-10 15 -10 11 0 12 4 4 13 -9 11 -4 11 22 4 17 -5 36 -7 40 -4 5 3 9 -1 9 -8
1 -7 7 -2 16 12 8 14 13 18 12 10 -2 -9 2 -16 7 -18 6 -1 9 9 8 21 -1 12 2 37
7 55 8 29 7 32 -6 21 -17 -14 -17 -15 1 45 13 43 13 47 0 36 -18 -15 -18 -16
0 44 13 43 13 47 0 36 -19 -16 -19 -8 0 37 13 30 13 34 1 23 -13 -10 -13 -7
-3 20 10 25 9 33 -3 40 -9 6 -20 4 -29 -3 -12 -9 -13 -9 -7 1 4 7 2 12 -5 12
-7 0 -9 3 -6 7 4 3 -1 15 -10 26 -10 11 -12 17 -5 13 9 -5 11 3 9 34 -3 31 0
40 10 35 8 -2 11 0 8 5 -3 6 -14 10 -23 11 -14 0 -14 2 2 8 14 5 16 10 8 15
-9 5 -9 13 -2 27 8 13 7 19 0 19 -6 0 -8 5 -4 12 4 7 3 8 -5 4 -6 -4 -9 -13
-5 -19 3 -7 -4 -1 -16 13 -12 14 -18 18 -14 10 7 -13 5 -13 -9 -1 -18 14 -22
23 -9 18 4 -1 8 3 10 8 2 6 15 17 30 25 15 8 28 21 30 28 1 8 -2 11 -7 8 -5
-3 -8 2 -6 11 1 10 -3 24 -9 32 -8 11 -8 13 1 8 7 -4 17 0 23 10 11 16 11 16
6 -2 -6 -19 -5 -19 8 -1 8 10 19 16 24 12 5 -3 9 1 9 9 0 8 -5 12 -10 8 -5 -3
-1 7 9 23 18 28 18 29 -1 14 -17 -14 -18 -13 -12 3 4 11 10 31 14 45 3 14 12
37 19 51 11 20 14 22 14 8 0 -10 4 -16 9 -12 6 3 10 77 10 169 0 137 -3 165
-15 170 -8 3 -12 1 -9 -4 3 -5 -1 -7 -9 -4 -10 4 -14 16 -12 34 2 22 0 27 -12
23 -11 -5 -10 0 4 23 17 26 17 27 1 15 -15 -12 -17 -11 -17 10 0 22 0 22 -15
3 -13 -16 -14 -16 -9 -1 3 9 1 17 -5 17 -6 0 -11 9 -11 19 0 11 -5 23 -12 27
-8 5 -9 2 -4 -11 5 -15 4 -16 -9 -5 -8 7 -12 16 -9 21 3 5 0 10 -5 10 -6 1
-17 2 -23 3 -7 1 -12 11 -12 24 1 22 1 22 -19 5 -18 -16 -20 -16 -14 -1 5 14
1 15 -24 8 -27 -8 -29 -7 -29 21 l0 29 -177 0 c-132 -1 -183 -4 -195 -14z
m175 -100 c-4 -6 5 -3 19 6 19 13 29 15 34 6 4 -6 3 -8 -3 -5 -5 3 -10 0 -10
-8 0 -10 4 -12 12 -5 6 5 21 8 34 5 12 -2 19 0 16 6 -4 5 -2 9 4 9 5 0 13 -5
16 -10 4 -6 11 -8 16 -5 5 4 9 0 9 -7 0 -10 2 -10 9 1 5 8 18 12 29 9 15 -4
19 -2 15 9 -5 13 -3 13 18 1 13 -7 32 -23 42 -36 10 -12 24 -19 30 -15 8 4 7
1 -1 -9 -11 -14 -10 -17 5 -22 10 -3 19 -15 19 -26 0 -12 -5 -19 -13 -16 -25
10 -1 -20 26 -32 16 -7 32 -20 36 -30 4 -12 0 -11 -18 6 -17 16 -24 18 -24 8
0 -8 3 -14 6 -13 3 1 17 -6 31 -16 13 -9 19 -17 12 -17 -6 0 -12 -7 -12 -16 0
-9 -5 -12 -12 -8 -9 5 -9 2 1 -9 7 -9 11 -17 7 -17 -4 0 1 -11 9 -24 12 -18
13 -26 4 -32 -7 -4 -9 -3 -5 4 3 6 1 14 -6 18 -7 4 -10 4 -6 -1 4 -4 2 -15 -5
-23 -10 -13 -9 -14 2 -7 11 6 13 4 8 -8 -3 -9 -2 -19 2 -22 5 -3 7 -14 4 -25
-3 -11 -10 -17 -17 -13 -6 4 -5 -1 3 -10 7 -9 10 -17 6 -17 -4 0 -2 -7 5 -15
10 -12 10 -15 -1 -15 -11 0 -11 -2 1 -10 13 -8 12 -10 -4 -10 -12 0 -16 -5
-13 -14 4 -10 1 -13 -9 -9 -8 3 -14 -1 -14 -11 0 -9 -4 -16 -10 -16 -5 0 -10
-5 -10 -11 0 -5 4 -8 9 -5 4 3 8 -7 7 -22 -1 -15 -8 -30 -16 -34 -12 -5 -11
-7 3 -7 11 -1 17 -6 14 -13 -2 -7 -10 -12 -17 -10 -10 2 -10 -1 1 -14 13 -16
12 -16 -11 -4 -23 12 -24 12 -11 -4 12 -14 12 -16 -3 -10 -9 3 -16 12 -16 19
0 7 -6 16 -12 19 -9 3 -7 9 6 20 17 14 18 16 3 16 -20 0 -22 11 -4 29 7 8 7
11 1 8 -7 -4 -17 0 -24 9 -7 8 -19 13 -26 10 -8 -3 -11 0 -7 10 3 7 0 14 -6
14 -6 0 -11 7 -11 15 0 8 -15 19 -32 24 -18 5 -27 10 -20 10 6 1 12 6 12 12 0
5 -4 7 -10 4 -5 -3 -10 -1 -10 4 0 6 -7 11 -16 11 -11 0 -14 6 -9 23 5 17 4
19 -4 7 -8 -12 -11 -12 -11 -1 0 7 -6 11 -14 8 -16 -6 -40 16 -29 26 3 4 1 13
-5 20 -7 8 -8 18 -4 22 4 5 2 5 -5 1 -7 -4 -10 -14 -7 -24 5 -13 4 -14 -4 -3
-6 8 -17 11 -27 8 -9 -4 -14 -3 -10 3 9 14 -29 12 -43 -2 -9 -9 -12 -9 -12 0
0 7 5 12 10 12 18 0 11 17 -12 29 -13 6 -15 9 -6 7 10 -3 20 -1 23 5 4 5 3 9
-2 8 -4 -1 -11 0 -15 1 -15 5 -28 8 -45 9 -16 2 -15 3 2 11 17 7 17 9 3 9 -20
1 -24 17 -6 23 7 3 5 7 -6 11 -10 4 -15 3 -11 -3 4 -6 -11 -10 -39 -8 -26 0
-44 3 -41 6 2 2 -3 18 -11 34 -15 29 -16 29 -36 11 -12 -10 -18 -12 -14 -5 4
7 1 12 -9 12 -10 0 -13 -5 -9 -12 6 -10 5 -10 -8 -1 -8 7 -18 9 -22 5 -4 -4
-6 0 -4 8 2 8 -2 14 -8 13 -9 -2 -9 4 0 22 6 14 15 25 19 25 5 0 6 -4 3 -9 -7
-11 21 -8 31 4 4 4 2 5 -4 1 -7 -4 -13 -2 -13 3 0 6 8 11 18 11 14 0 15 2 2
10 -13 8 -12 10 3 10 10 0 16 4 12 9 -3 5 -1 12 5 16 5 3 10 -2 11 -12 0 -16
1 -16 9 2 6 13 9 15 9 5 1 -13 2 -13 11 0 8 12 10 12 10 1 0 -10 3 -11 14 -2
11 9 15 9 20 -1 3 -7 3 -1 1 14 -3 20 0 25 11 21 10 -4 12 0 8 12 -6 15 -4 16
16 5 16 -8 20 -9 15 -1 -4 8 1 10 17 7 50 -11 88 -14 83 -6 -6 10 16 19 32 12
7 -2 10 -9 6 -16z m151 16 c3 -5 -1 -9 -9 -9 -8 0 -12 4 -9 9 3 4 7 8 9 8 2 0
6 -4 9 -8z m221 -261 c3 -5 2 -12 -3 -15 -5 -3 -9 1 -9 9 0 17 3 19 12 6z m0
-160 c3 -5 2 -12 -3 -15 -5 -3 -9 1 -9 9 0 17 3 19 12 6z m-210 -72 c11 -16 1
-19 -13 -3 -7 8 -8 14 -3 14 5 0 13 -5 16 -11z m255 -24 c-7 -9 -15 -13 -17
-11 -6 6 20 36 26 30 2 -2 -2 -10 -9 -19z m-1156 -186 c-5 -8 3 -10 24 -7 27
4 30 2 19 -10 -10 -13 -8 -14 13 -7 22 7 23 6 12 -8 -15 -17 -7 -24 26 -21 18
1 22 -3 17 -15 -5 -12 -3 -13 6 -4 8 8 19 9 35 3 13 -5 24 -7 24 -4 0 3 5 2
10 -1 6 -4 8 -11 4 -16 -4 -6 -11 -6 -20 2 -26 22 -14 4 18 -26 18 -17 29 -25
25 -18 -4 6 -3 15 3 18 6 4 9 1 8 -7 -2 -7 3 -12 10 -10 10 2 10 -2 1 -19 -10
-19 -9 -21 5 -16 11 4 16 1 16 -11 0 -15 2 -15 10 -2 8 13 10 12 10 -2 0 -10
6 -18 13 -19 6 0 3 -4 -8 -9 l-20 -9 20 0 c17 -1 17 -3 5 -11 -13 -9 -13 -10
0 -10 9 0 11 -3 5 -8 -5 -4 -12 -16 -13 -26 -3 -18 -2 -19 15 -5 17 13 17 13
3 -5 -18 -23 -22 -46 -7 -46 5 0 7 -3 4 -6 -4 -4 -14 -1 -24 7 -14 12 -16 12
-11 -1 4 -11 -2 -15 -23 -15 -15 -1 -26 2 -23 6 2 4 -3 10 -12 13 -10 4 -13 2
-8 -6 5 -8 2 -9 -10 -5 -10 4 -15 3 -11 -3 3 -6 1 -10 -4 -10 -6 0 -11 4 -11
9 0 5 -7 12 -16 15 -13 5 -14 3 -6 -6 8 -10 3 -13 -24 -14 -19 -1 -34 3 -34 8
0 5 5 6 12 2 7 -5 8 -3 3 6 -6 10 -11 9 -22 -5 -8 -12 -13 -14 -13 -6 0 11 -3
11 -17 0 -15 -12 -16 -12 -10 3 4 12 2 15 -8 11 -8 -3 -13 -8 -11 -12 3 -4
-11 -6 -30 -6 -22 0 -33 4 -30 12 3 7 -1 10 -9 6 -8 -3 -13 -8 -11 -12 3 -4
-9 -7 -25 -6 -16 0 -29 3 -29 6 0 4 -7 10 -16 13 -13 5 -14 3 -6 -6 8 -10 -1
-13 -44 -14 -30 0 -54 3 -54 8 0 4 -5 8 -11 8 -5 0 -8 -4 -5 -8 2 -4 -6 -8
-19 -8 -13 0 -21 4 -19 8 3 4 0 8 -6 8 -7 0 -9 8 -5 21 4 13 3 19 -2 16 -5 -4
-10 1 -10 9 0 8 6 13 13 10 8 -3 11 0 7 10 -3 7 -9 14 -13 14 -4 0 -7 11 -6
25 1 17 6 23 15 20 9 -3 11 0 7 10 -3 8 -1 16 4 16 6 1 15 3 20 4 6 1 13 3 16
4 4 0 1 8 -6 16 -11 13 -10 14 5 9 13 -5 16 -4 11 4 -4 7 -2 12 4 12 6 0 8 5
4 13 -5 7 0 6 11 -3 17 -14 18 -13 12 3 -3 9 -2 17 4 17 6 0 8 4 5 9 -3 5 2
15 12 22 15 13 16 12 3 -3 -8 -11 -9 -18 -3 -18 6 0 16 9 22 20 6 11 16 20 23
20 8 0 6 -4 -3 -10 -11 -8 -6 -10 22 -8 20 1 34 6 32 10 -3 5 -10 5 -16 2 -7
-4 -8 -2 -4 4 4 6 14 8 22 5 14 -5 14 -3 6 14 -9 15 -8 20 3 20 8 0 12 -4 9
-9 -10 -16 9 -8 22 10 8 10 13 12 14 5 0 -7 5 -13 11 -13 5 0 7 5 3 12 -4 6
-3 8 4 4 6 -3 13 -2 17 4 3 5 8 10 11 10 3 0 2 -5 -2 -11z m-1191 -234 c-3 -9
-8 -14 -10 -11 -3 3 -2 9 2 15 9 16 15 13 8 -4z m2335 -130 c-3 -3 -9 2 -12
12 -6 14 -5 15 5 6 7 -7 10 -15 7 -18z m-668 -465 c0 -5 -2 -10 -4 -10 -3 0
-8 5 -11 10 -3 6 -1 10 4 10 6 0 11 -4 11 -10z m-630 -166 c0 -8 -19 -13 -24
-6 -3 5 1 9 9 9 8 0 15 -2 15 -3z m-810 -220 c0 -8 5 -14 11 -14 8 0 7 -6 -2
-16 -12 -15 -11 -16 10 -9 16 5 21 4 17 -4 -5 -7 2 -11 16 -11 18 0 20 -2 8
-10 -12 -8 -12 -10 5 -10 17 0 17 -2 5 -10 -13 -8 -12 -10 3 -10 12 0 16 -4
11 -12 -6 -10 -5 -10 8 -1 20 17 30 6 17 -18 -5 -11 -7 -19 -4 -19 12 0 20 6
17 13 -1 5 2 5 8 2 6 -4 9 -13 6 -21 -3 -9 0 -11 11 -7 11 4 14 2 9 -5 -5 -8
1 -12 15 -12 22 0 22 0 3 -16 -10 -8 -13 -13 -6 -9 6 3 12 1 12 -4 0 -11 35
-10 46 2 9 9 46 -12 62 -35 7 -10 18 -16 23 -13 5 3 6 -1 3 -9 -4 -10 -1 -16
7 -16 11 0 11 -3 -1 -10 -13 -8 -12 -10 3 -10 9 0 17 -3 17 -8 0 -4 9 -13 21
-20 13 -9 18 -9 14 -2 -5 8 2 10 23 7 20 -3 30 -1 28 6 -2 7 -1 9 1 5 3 -5 16
-8 29 -8 17 0 23 4 18 12 -4 7 -3 8 4 4 9 -5 9 -13 2 -26 -8 -15 -6 -21 7 -28
13 -8 11 -11 -16 -17 -29 -6 -32 -10 -26 -33 6 -26 6 -26 -9 -7 -15 20 -15 20
-16 -2 0 -13 -5 -23 -11 -23 -5 0 -7 6 -3 13 5 7 0 6 -11 -3 -17 -14 -18 -13
-11 4 6 19 6 19 -12 3 -13 -12 -21 -14 -29 -6 -8 8 -13 7 -18 -2 -5 -7 -4 -10
2 -6 6 4 13 0 16 -7 4 -10 0 -14 -12 -11 -14 2 -17 -2 -15 -21 1 -13 -2 -24
-8 -24 -6 0 -8 6 -5 13 3 8 -1 14 -9 14 -9 0 -13 -6 -9 -16 4 -11 0 -10 -16 5
-12 10 -19 13 -15 7 10 -19 -4 -16 -27 4 -13 11 -17 12 -12 4 6 -11 4 -13 -9
-8 -10 4 -15 3 -11 -3 3 -6 3 -10 -2 -11 -4 0 -16 -2 -26 -4 -9 -2 -15 1 -11
6 3 5 11 6 17 2 7 -4 5 1 -2 11 -14 16 -16 16 -27 2 -11 -16 -40 -23 -30 -7 3
4 -6 6 -19 3 -14 -2 -23 -8 -20 -12 4 -6 -36 -7 -42 0 -2 1 -7 3 -12 4 -5 0
-13 5 -18 10 -5 5 -3 6 5 2 6 -4 12 -2 12 3 0 6 -5 11 -11 11 -5 0 -7 4 -4 10
3 6 -1 7 -10 4 -9 -4 -15 -3 -14 2 5 29 -2 37 -16 18 -15 -18 -15 -18 -8 0 5
15 3 17 -8 11 -12 -7 -12 -6 -1 7 11 13 11 18 0 24 -7 5 -20 9 -28 9 -9 0 -15
9 -14 21 0 16 -4 21 -15 17 -13 -4 -12 -2 2 10 21 17 22 28 3 21 -16 -6 -16
19 -1 33 4 4 5 2 0 -6 -6 -10 -4 -12 5 -6 10 6 9 11 -5 22 -11 7 -14 13 -8 13
6 0 13 7 17 15 3 8 2 14 -2 14 -21 -3 -24 3 -6 17 10 8 14 13 7 10 -6 -4 -14
-2 -18 4 -3 5 1 10 10 10 9 0 13 5 10 10 -4 6 -12 7 -18 4 -8 -5 -8 -3 1 7 15
16 16 33 0 23 -7 -5 -8 -3 -4 5 5 7 15 10 23 6 14 -5 14 -3 2 12 -12 15 -12
16 5 10 14 -6 17 -4 12 8 -3 9 3 24 14 35 11 11 16 20 12 20 -5 0 -9 7 -9 15
0 10 6 14 15 10 13 -5 13 -3 1 12 -8 9 -9 14 -2 10 6 -4 14 -3 18 3 8 13 25 3
25 -16z m214 -192 c3 -5 -1 -9 -9 -9 -8 0 -12 4 -9 9 3 4 7 8 9 8 2 0 6 -4 9
-8z m-569 -32 c3 -6 -1 -7 -9 -4 -18 7 -21 14 -7 14 6 0 13 -4 16 -10z m735
-76 c0 -8 -19 -13 -24 -6 -3 5 1 9 9 9 8 0 15 -2 15 -3z m900 -58 c0 -3 -4 -8
-10 -11 -5 -3 -10 -1 -10 4 0 6 5 11 10 11 6 0 10 -2 10 -4z"/>
<path d="M2375 2460 c10 -11 20 -20 23 -20 3 0 -3 9 -13 20 -10 11 -20 20 -23
20 -3 0 3 -9 13 -20z"/>
<path d="M2175 2120 c3 -5 8 -10 11 -10 2 0 4 5 4 10 0 6 -5 10 -11 10 -5 0
-7 -4 -4 -10z"/>
<path d="M1106 1477 c3 -10 9 -15 12 -12 3 3 0 11 -7 18 -10 9 -11 8 -5 -6z"/>
<path d="M1187 1469 c7 -7 15 -10 18 -7 3 3 -2 9 -12 12 -14 6 -15 5 -6 -5z"/>
<path d="M411 584 c0 -11 3 -14 6 -6 3 7 2 16 -1 19 -3 4 -6 -2 -5 -13z"/>
<path d="M367 515 c-4 -8 -2 -17 3 -20 6 -4 10 1 10 10 0 10 5 13 12 9 7 -4 8
-3 4 4 -10 16 -23 15 -29 -3z"/>
<path d="M698 343 c6 -2 10 -8 8 -12 -3 -4 1 -8 9 -8 11 0 12 4 4 14 -6 7 -17
13 -23 12 -7 0 -6 -2 2 -6z"/>
<path d="M466 108 c3 -4 9 -8 15 -8 5 0 9 4 9 8 0 5 -7 9 -15 9 -8 0 -12 -4
-9 -9z"/>
<path d="M2429 2533 c-13 -16 -12 -17 4 -4 9 7 17 15 17 17 0 8 -8 3 -21 -13z"/>
<path d="M535 2100 c-3 -5 -2 -10 4 -10 5 0 13 5 16 10 3 6 2 10 -4 10 -5 0
-13 -4 -16 -10z"/>
<path d="M363 1915 c0 -8 4 -12 9 -9 5 3 6 10 3 15 -9 13 -12 11 -12 -6z"/>
<path d="M2493 1805 c0 -8 4 -15 9 -15 4 0 8 4 8 9 0 6 -4 12 -8 15 -5 3 -9
-1 -9 -9z"/>
<path d="M200 1641 c0 -6 4 -13 10 -16 6 -3 7 1 4 9 -7 18 -14 21 -14 7z"/>
<path d="M2496 1513 c-6 -14 -5 -15 5 -6 7 7 10 15 7 18 -3 3 -9 -2 -12 -12z"/>
<path d="M1086 1053 c-6 -14 -5 -15 5 -6 7 7 10 15 7 18 -3 3 -9 -2 -12 -12z"/>
<path d="M43 1045 c0 -8 4 -12 9 -9 5 3 6 10 3 15 -9 13 -12 11 -12 -6z"/>
<path d="M1650 819 c0 -5 5 -7 10 -4 6 3 10 8 10 11 0 2 -4 4 -10 4 -5 0 -10
-5 -10 -11z"/>
<path d="M1274 158 c-4 -7 -4 -10 1 -6 4 4 15 2 24 -5 14 -11 14 -10 2 6 -16
20 -18 21 -27 5z"/>
</g>
</svg>
